<mxfile host="app.diagrams.net" modified="2023-11-09T11:24:24.237Z" agent="Mozilla/5.0 (Windows NT 10.0; Win64; x64) AppleWebKit/537.36 (KHTML, like Gecko) Chrome/119.0.0.0 Safari/537.36" etag="Hpk6imiv-m0ULTka6gBb" version="22.1.0" type="device">
  <diagram name="Page-1" id="CJk-H8RGNkF1b8eFA2ER">
    <mxGraphModel dx="1195" dy="625" grid="1" gridSize="10" guides="1" tooltips="1" connect="1" arrows="1" fold="1" page="1" pageScale="1" pageWidth="827" pageHeight="1169" math="0" shadow="0">
      <root>
        <mxCell id="0" />
        <mxCell id="1" parent="0" />
        <mxCell id="PyQRz4f_cbgbjoF38Qfi-8" style="edgeStyle=orthogonalEdgeStyle;rounded=0;orthogonalLoop=1;jettySize=auto;html=1;entryX=0;entryY=0.5;entryDx=0;entryDy=0;" edge="1" parent="1" source="PyQRz4f_cbgbjoF38Qfi-1" target="PyQRz4f_cbgbjoF38Qfi-2">
          <mxGeometry relative="1" as="geometry" />
        </mxCell>
        <mxCell id="PyQRz4f_cbgbjoF38Qfi-1" value="Closed" style="ellipse;whiteSpace=wrap;html=1;aspect=fixed;" vertex="1" parent="1">
          <mxGeometry x="370" y="350" width="80" height="80" as="geometry" />
        </mxCell>
        <mxCell id="PyQRz4f_cbgbjoF38Qfi-4" style="edgeStyle=orthogonalEdgeStyle;rounded=0;orthogonalLoop=1;jettySize=auto;html=1;entryX=0.25;entryY=0.056;entryDx=0;entryDy=0;entryPerimeter=0;exitX=0.242;exitY=0.933;exitDx=0;exitDy=0;exitPerimeter=0;" edge="1" parent="1" source="PyQRz4f_cbgbjoF38Qfi-2" target="PyQRz4f_cbgbjoF38Qfi-3">
          <mxGeometry relative="1" as="geometry" />
        </mxCell>
        <mxCell id="PyQRz4f_cbgbjoF38Qfi-2" value="Open" style="ellipse;whiteSpace=wrap;html=1;aspect=fixed;" vertex="1" parent="1">
          <mxGeometry x="650" y="350" width="80" height="80" as="geometry" />
        </mxCell>
        <mxCell id="PyQRz4f_cbgbjoF38Qfi-5" value="" style="edgeStyle=orthogonalEdgeStyle;rounded=0;orthogonalLoop=1;jettySize=auto;html=1;" edge="1" parent="1" source="PyQRz4f_cbgbjoF38Qfi-3" target="PyQRz4f_cbgbjoF38Qfi-2">
          <mxGeometry relative="1" as="geometry" />
        </mxCell>
        <mxCell id="PyQRz4f_cbgbjoF38Qfi-3" value="Half Open" style="ellipse;whiteSpace=wrap;html=1;aspect=fixed;" vertex="1" parent="1">
          <mxGeometry x="650" y="545" width="80" height="80" as="geometry" />
        </mxCell>
        <mxCell id="PyQRz4f_cbgbjoF38Qfi-7" value="" style="endArrow=classic;html=1;rounded=0;exitX=0;exitY=0.5;exitDx=0;exitDy=0;entryX=1;entryY=1;entryDx=0;entryDy=0;" edge="1" parent="1" source="PyQRz4f_cbgbjoF38Qfi-3" target="PyQRz4f_cbgbjoF38Qfi-1">
          <mxGeometry width="50" height="50" relative="1" as="geometry">
            <mxPoint x="500" y="490" as="sourcePoint" />
            <mxPoint x="550" y="440" as="targetPoint" />
          </mxGeometry>
        </mxCell>
      </root>
    </mxGraphModel>
  </diagram>
</mxfile>
